<svg width="336" height="117" viewBox="0 0 336 117" fill="none" xmlns="http://www.w3.org/2000/svg">
<path d="M16.0487 75.4352V61.7716H9.72512V75.4352H6.10352e-05V40.2254H9.72381V53.8943H16.0474V40.2254H25.7738V75.4366H16.0487V75.4352Z" fill="black"/>
<path d="M51.1653 75.4352L49.6576 69.4045H39.5425L38.0335 75.4352H27.8698L38.8149 40.2241H50.3891L61.3303 75.4352H51.1653ZM45.4747 52.7741C44.9389 50.6307 44.646 48.2497 44.646 48.2497H44.5488C44.5488 48.2497 44.2586 50.6307 43.7241 52.7741L41.2918 62.4046H47.9057L45.4747 52.7741Z" fill="black"/>
<path d="M82.5378 75.4352L73.782 59.8738C72.5685 57.7331 71.6452 55.4966 71.6452 55.4966H71.548C71.548 55.4966 71.6452 57.9787 71.6452 60.3637V75.4366H63.4213V40.2254H71.2525L79.7168 55.2037C80.883 57.2498 81.8562 59.581 81.8562 59.581H81.9521C81.9521 59.581 81.8562 57.0042 81.8562 54.5733V40.2254H90.0749V75.4366H82.5378V75.4352Z" fill="black"/>
<path d="M103.406 76.0669C99.7566 76.0669 95.7694 75.1923 93.7745 74.1245L96.887 65.6629C98.4446 66.5835 100.826 67.315 102.919 67.315C104.864 67.315 105.789 66.2946 105.789 65.0772C105.789 63.7192 104.473 62.8419 102.725 61.9672C99.272 60.2639 94.2144 57.5427 94.2144 50.9262C94.2144 44.2152 98.4945 39.595 106.275 39.595C110.021 39.595 113.034 40.4211 115.029 41.5374L112.111 49.3227C110.896 48.6884 108.804 47.9109 106.762 47.9109C104.867 47.9109 103.942 48.9812 103.942 50.2959C103.942 51.5579 105.158 52.5298 106.909 53.503C110.457 55.4007 115.757 57.9301 115.757 64.4927C115.754 71.2051 111.622 76.0669 103.406 76.0669Z" fill="black"/>
<path d="M138.872 75.4352L137.363 69.4045H127.249L125.742 75.4352H115.577L126.521 40.2241H138.095L149.039 75.4352H138.872ZM133.183 52.7741C132.647 50.6307 132.354 48.2497 132.354 48.2497H132.258C132.258 48.2497 131.966 50.6307 131.431 52.7741L128.999 62.4046H135.614L133.183 52.7741Z" fill="black"/>
<path d="M169.479 75.4352L160.723 59.8738C159.508 57.7331 158.586 55.4966 158.586 55.4966H158.488C158.488 55.4966 158.586 57.9787 158.586 60.3637V75.4366H150.362V40.2254H158.195L166.653 55.2037C167.825 57.2498 168.798 59.581 168.798 59.581H168.893C168.893 59.581 168.798 57.0042 168.798 54.5733V40.2254H177.015V75.4366H169.479V75.4352Z" fill="black"/>
<path d="M196.87 76.0669C185.977 76.0669 180.385 68.2409 180.385 57.8316C180.385 47.3764 186.61 39.595 197.796 39.595C201.492 39.595 205.092 40.471 206.938 41.5374L204.019 49.1244C202.657 48.3968 200.762 47.8137 198.184 47.8137C193.418 47.8137 190.112 51.0221 190.112 57.7817C190.112 64.4468 193.029 67.9481 196.143 67.9481C196.923 67.9481 197.456 67.8995 197.895 67.7537V60.9455H194.784V53.7446H206.94V74.1245C204.897 75.1923 201.009 76.0669 196.87 76.0669Z" fill="black"/>
<path d="M324.075 57.477H320.735V67.5225H324.075V57.477Z" fill="#00AADB"/>
<path d="M237.889 42.0824V40.4289H242.781C245.623 39.1458 248.214 37.4031 250.422 35.2598H250.828C257.166 27.9 266.544 23.2325 277.017 23.2325C281.888 23.2325 286.52 24.245 290.725 26.064C291.441 25.6673 292.2 25.339 292.997 25.1013V20.5349H293.023C293.134 19.1809 294.057 18.0685 295.308 17.6811C295.17 17.4854 295.085 17.2477 295.085 16.9916C295.085 16.335 295.624 15.7991 296.275 15.7991C296.937 15.7991 297.47 16.335 297.47 16.9916C297.47 17.2477 297.386 17.4854 297.247 17.6811C298.498 18.0672 299.422 19.1809 299.535 20.5349H299.561V20.8015V20.8685V25.1013C304.301 26.5144 307.764 30.9035 307.764 36.1042C307.764 36.1594 307.761 36.2158 307.756 36.2697H307.764V40.14C314.522 41.2563 317.422 45.0295 317.422 49.8585C317.422 50.1566 317.386 50.4469 317.352 50.7384H317.689C317.689 50.7187 317.689 50.7003 317.689 50.678C317.689 48.5544 319.155 46.7749 321.133 46.2889C321.02 46.1064 320.956 45.9002 320.956 45.673C320.956 45.0163 321.489 44.4805 322.146 44.4805C322.808 44.4805 323.336 45.0163 323.336 45.673C323.336 45.8871 323.279 46.0788 323.179 46.2548C325.224 46.6948 326.756 48.5058 326.756 50.6793C326.756 50.7017 326.756 50.72 326.756 50.7397H328.936V57.4757H327.358V67.5212H335.215C335.723 64.431 336 61.262 336 58.0286C336 44.6657 331.473 32.3665 323.879 22.5561L315.133 31.3054L305.853 22.0242L314.739 13.137C305.974 5.9493 295.063 1.28968 283.114 0.239029V14.7642H269.992V0.56079C259.195 2.04614 249.343 6.49432 241.293 13.0701L250.247 22.0255L240.968 31.3067L232.133 22.4707C227.859 27.9709 224.549 34.2524 222.468 41.0751C225.388 42.173 228.537 42.7995 231.839 42.7995C233.924 42.7995 235.943 42.5355 237.889 42.0824Z" fill="#00AADB"/>
<path d="M312.414 57.305V57.4009C314.333 58.181 316.444 60.0091 317.452 62.6186V57.477H315.902V54.6219C315.011 55.8866 313.792 56.8532 312.414 57.305Z" fill="#00AADB"/>
<path d="M271.628 57.477L271.486 58.0312L271.682 57.477H271.628Z" fill="#FCAF17"/>
<path d="M251.471 41.7606H264.392L251.471 54.5392V54.9555H263.335L267.851 40.4276H279.427L279.871 41.8605V41.8342H284.793V36.2697H284.798C284.798 36.2159 284.793 36.1594 284.793 36.1042C284.793 31.7795 287.188 28.0208 290.724 26.064C286.52 24.245 281.886 23.2325 277.015 23.2325C266.542 23.2325 257.165 27.9 250.827 35.2598H251.47V41.7606H251.471Z" fill="#FCAF17"/>
<path d="M251.641 67.5659H256.081V67.5738H259.413L262.866 56.4645L251.641 67.5659Z" fill="#FCAF17"/>
<path d="M283.114 14.7656V0.240344C281.419 0.0906268 279.705 7.62939e-06 277.971 7.62939e-06C275.262 7.62939e-06 272.602 0.200945 269.992 0.559479V14.7642H283.114V14.7656Z" fill="#FCAF17"/>
<path d="M250.247 22.0242L241.293 13.0688C237.894 15.8451 234.824 19.0036 232.133 22.4707L240.968 31.3067L250.247 22.0242Z" fill="#FCAF17"/>
<path d="M315.134 31.3067L323.881 22.5574C321.195 19.085 318.132 15.92 314.739 13.1384L305.853 22.0255L315.134 31.3067Z" fill="#FCAF17"/>
<path d="M327.358 57.477H328.936V50.7411H326.756C326.756 50.7214 326.756 50.703 326.756 50.6807C326.756 48.5071 325.224 46.6974 323.179 46.2561C323.279 46.0801 323.336 45.8884 323.336 45.6743C323.336 45.0177 322.808 44.4818 322.146 44.4818C321.489 44.4818 320.956 45.0177 320.956 45.6743C320.956 45.9015 321.02 46.1077 321.133 46.2903C319.156 46.7762 317.689 48.5557 317.689 50.6793C317.689 50.7017 317.689 50.7201 317.689 50.7398H317.352C317.199 52.1765 316.685 53.5148 315.902 54.6219V57.477H317.452V62.6186C317.824 63.5826 318.055 64.6451 318.055 65.8126C318.055 72.3792 313.286 76.2679 303.318 76.2679C302.32 76.2679 301.333 76.2193 300.366 76.1431L318.54 94.3193L311.832 94.3246L305.95 100.571H317.426C326.649 92.0118 333.081 80.4941 335.215 67.5239H327.358V57.477ZM324.075 67.5225H320.735V57.477H324.075V67.5225Z" fill="#333376"/>
<path d="M285.795 94.3482L285.779 75.6362H280.205L278.698 69.6081H268.582L267.075 75.6362H256.907L259.413 67.5738H256.081V75.6362H251.471V87.8119H264.669V94.2773H271.394V100.569H292.353V94.343L285.795 94.3482Z" fill="#333376"/>
<path d="M307.212 53.7525C307.797 53.1694 308.184 52.1949 308.184 50.9315C308.184 48.5006 307.068 46.9916 303.272 46.9916C302.395 46.9916 301.474 47.0874 300.89 47.2358V54.6298H304.337C305.656 54.6298 306.774 54.1911 307.212 53.7525Z" fill="#333376"/>
<path d="M284.794 36.1042C284.794 36.1594 284.799 36.2159 284.799 36.2697H284.794V41.8342H279.872V41.8605L286.084 61.8582L291.695 67.4713V41.737C294.666 40.5734 298.895 39.7946 303.318 39.7946C304.962 39.7946 306.429 39.922 307.764 40.1413V36.271H307.756C307.761 36.2172 307.764 36.1607 307.764 36.1055C307.764 30.9048 304.3 26.5144 299.561 25.1026V20.8685V20.8015V20.5349H299.534C299.422 19.1809 298.498 18.0685 297.247 17.6811C297.385 17.4854 297.47 17.2477 297.47 16.9916C297.47 16.335 296.937 15.7991 296.275 15.7991C295.623 15.7991 295.085 16.335 295.085 16.9916C295.085 17.2477 295.169 17.4854 295.308 17.6811C294.057 18.0672 293.133 19.1809 293.023 20.5349H292.997V25.1013C292.2 25.339 291.439 25.6687 290.725 26.064C287.189 28.0208 284.794 31.7795 284.794 36.1042Z" fill="#333376"/>
<path d="M274.516 52.9737C273.978 50.8317 273.687 48.4533 273.687 48.4533H273.593C273.593 48.4533 273.297 50.8317 272.764 52.9737L271.628 57.477H271.682L271.488 58.0312L270.333 62.6042H276.948L274.516 52.9737Z" fill="#333376"/>
<path d="M308.428 65.131C308.428 63.9674 308.038 62.8958 307.405 62.3127C306.775 61.7269 305.845 61.3382 304.337 61.3382H300.89V68.828C301.423 68.9252 302.395 69.071 303.272 69.071C306.969 69.071 308.428 68.0045 308.428 65.131Z" fill="#333376"/>
<path d="M318.54 94.318L300.366 76.1418C296.905 75.8686 293.748 75.1581 291.696 74.3242V67.47L286.084 61.8569L290.365 75.6349H285.779L285.795 94.3469L292.353 94.3416V100.568H305.951L311.834 94.3219L318.54 94.318Z" fill="#72BF44"/>
<path d="M247.619 40.429V67.5672H251.642L262.867 56.4658L263.336 54.9568H251.473V54.5405L264.393 41.762H251.473V35.2611H250.829H250.423C248.214 37.4044 245.624 39.1472 242.782 40.4303H247.619V40.429Z" fill="#B72755"/>
<path d="M271.394 100.569V94.2773H264.669V87.8119H251.471V75.6362H237.889V42.0824C235.943 42.5355 233.923 42.7995 231.839 42.7995C228.537 42.7995 225.388 42.173 222.468 41.0751C220.832 46.4386 219.944 52.1305 219.944 58.0299C219.944 74.839 227.098 89.9709 238.518 100.569H271.394Z" fill="#B72755"/>
<path d="M317.427 100.569H305.951H292.353H271.394H238.518C248.874 110.178 262.733 116.061 277.971 116.061C293.212 116.061 307.072 110.179 317.427 100.569Z" fill="#00B49D"/>
<path d="M2.56095 95.3781H1.63507V101.761H0V87.971H1.63507V94.3931L2.52155 94.1173L7.15097 87.971H9.04214L4.43111 93.9006L3.60372 94.5507L4.60972 95.3387L9.65283 101.761H7.58437L2.56095 95.3781Z" fill="black"/>
<path d="M10.8939 94.8646C10.8939 92.5663 11.3798 90.8038 12.3517 89.5759C13.3235 88.348 14.7091 87.7333 16.5083 87.7333C17.4802 87.7333 18.3207 87.9041 19.0299 88.2455C19.7391 88.587 20.3261 89.0703 20.7937 89.6941C21.2586 90.3179 21.604 91.0665 21.8272 91.9398C22.0505 92.8132 22.1621 93.789 22.1621 94.8659C22.1621 97.1642 21.6736 98.928 20.6952 100.155C19.7167 101.384 18.3207 101.997 16.5083 101.997C15.5496 101.997 14.7196 101.826 14.017 101.485C13.3144 101.144 12.7299 100.662 12.2637 100.036C11.7975 99.4126 11.4534 98.664 11.2301 97.7906C11.0042 96.9173 10.8939 95.9428 10.8939 94.8646ZM12.6275 94.8646C12.6275 95.6263 12.7037 96.3486 12.8547 97.0316C13.0044 97.7145 13.2382 98.316 13.5534 98.8347C13.8686 99.3535 14.2731 99.7672 14.7656 100.076C15.2581 100.384 15.8385 100.539 16.5083 100.539C17.7297 100.539 18.6884 100.076 19.3845 99.1512C20.0792 98.2254 20.4286 96.7978 20.4286 94.8659C20.4286 94.1173 20.3524 93.3976 20.2014 92.7081C20.0503 92.0186 19.8139 91.4145 19.4922 90.8958C19.1704 90.377 18.7633 89.9633 18.2708 89.6547C17.7783 89.3461 17.1899 89.1911 16.507 89.1911C15.2988 89.1911 14.3492 89.6547 13.6598 90.5793C12.9729 91.5065 12.6275 92.934 12.6275 94.8646Z" fill="black"/>
<path d="M25.3521 88.1076C25.8512 88.0157 26.4251 87.9434 27.0765 87.8909C27.7266 87.8384 28.3202 87.8121 28.8587 87.8121C29.4628 87.8121 30.0367 87.8778 30.583 88.0091C31.1281 88.1404 31.6074 88.3571 32.0224 88.6592C32.4348 88.9613 32.7671 89.3553 33.0166 89.8412C33.2661 90.3271 33.3909 90.9181 33.3909 91.6141C33.3909 92.6911 33.0954 93.5644 32.5044 94.2342C31.9134 94.904 31.1648 95.3505 30.2586 95.5738L31.2042 96.3027L34.632 101.759H32.7211L28.9191 95.8102L26.9872 95.5147V101.759H25.3521V88.1076ZM28.8981 89.2305C28.7273 89.2305 28.55 89.2305 28.3662 89.2305C28.1823 89.2305 28.0063 89.2371 27.8356 89.2502C27.6649 89.2633 27.5033 89.2765 27.3523 89.2896C27.2026 89.3027 27.0804 89.3224 26.9885 89.3487V94.4312H28.5251C29.4313 94.4312 30.1812 94.2079 30.7708 93.7614C31.3618 93.3149 31.6586 92.6188 31.6586 91.6733C31.6586 90.9641 31.4144 90.3796 30.9284 89.92C30.4412 89.4616 29.7661 89.2305 28.8981 89.2305Z" fill="black"/>
<path d="M39.3402 96.2843L34.7896 87.971H36.7004L39.9312 93.9991L40.2726 95.2008H40.2923L40.6535 93.9597L43.7516 87.971H45.4851L40.9739 96.2646V101.761H39.3389V96.2843H39.3402Z" fill="black"/>
<path d="M46.3335 94.8646C46.3335 92.5663 46.8194 90.8038 47.7913 89.5759C48.7618 88.348 50.1473 87.7333 51.9479 87.7333C52.9184 87.7333 53.7603 87.9041 54.4695 88.2455C55.1786 88.587 55.7657 89.0703 56.2319 89.6941C56.6981 90.3179 57.0422 91.0665 57.2668 91.9398C57.4901 92.8132 57.6017 93.789 57.6017 94.8659C57.6017 97.1642 57.1118 98.928 56.1347 100.155C55.1563 101.384 53.7603 101.997 51.9479 101.997C50.9892 101.997 50.1579 101.826 49.4552 101.485C48.7539 101.144 48.1695 100.662 47.702 100.036C47.2371 99.4126 46.8916 98.664 46.6684 97.7906C46.4451 96.9173 46.3335 95.9428 46.3335 94.8646ZM48.0671 94.8646C48.0671 95.6263 48.1419 96.3486 48.293 97.0316C48.444 97.7145 48.6778 98.316 48.9929 98.8347C49.3068 99.3535 49.7113 99.7672 50.2038 100.076C50.6963 100.384 51.2768 100.539 51.9479 100.539C53.1693 100.539 54.1267 100.076 54.8227 99.1512C55.5188 98.2254 55.8668 96.7978 55.8668 94.8659C55.8668 94.1173 55.7906 93.3976 55.6409 92.7081C55.4899 92.0186 55.2522 91.4145 54.9317 90.8958C54.61 90.377 54.2015 89.9633 53.709 89.6547C53.2166 89.3461 52.6295 89.1911 51.9466 89.1911C50.737 89.1911 49.7888 89.6547 49.0993 90.5793C48.4112 91.5065 48.0671 92.934 48.0671 94.8646Z" fill="black"/>
<path d="M67.0182 98.2542C67.0182 97.7026 66.8541 97.2522 66.5257 96.9055C66.1974 96.5574 65.7863 96.2488 65.2938 95.9796C64.8014 95.7104 64.2668 95.4582 63.6877 95.2205C63.1111 94.9841 62.574 94.6991 62.0815 94.3642C61.589 94.0293 61.1779 93.6156 60.8496 93.1231C60.5213 92.6306 60.3571 92.0042 60.3571 91.2425C60.3571 90.1656 60.7314 89.3119 61.48 88.6815C62.2286 88.0511 63.2924 87.7359 64.6713 87.7359C65.4724 87.7359 66.2013 87.795 66.858 87.9132C67.5146 88.0314 68.0282 88.1825 68.3946 88.3663L67.9021 89.8241C67.6013 89.6744 67.1574 89.5325 66.573 89.3973C65.9886 89.262 65.328 89.1937 64.5925 89.1937C63.7258 89.1937 63.0757 89.3868 62.6423 89.7742C62.2089 90.1616 61.9922 90.6186 61.9922 91.1427C61.9922 91.6549 62.1563 92.0817 62.4847 92.4231C62.813 92.7646 63.2241 93.0706 63.7166 93.3385C64.209 93.6077 64.7436 93.8743 65.3227 94.1357C65.9006 94.3984 66.4364 94.7044 66.9289 95.0524C67.4214 95.4004 67.8325 95.818 68.1608 96.304C68.4891 96.7899 68.6533 97.394 68.6533 98.1163C68.6533 98.7073 68.5482 99.2392 68.3381 99.712C68.128 100.185 67.8193 100.592 67.4122 100.933C67.0051 101.275 66.5126 101.538 65.9347 101.721C65.3582 101.905 64.7015 101.997 63.9648 101.997C62.9798 101.997 62.1655 101.921 61.5233 101.77C60.8798 101.619 60.3807 101.452 60.0248 101.268L60.5764 99.8105C60.8785 99.976 61.325 100.139 61.9173 100.299C62.5083 100.459 63.1715 100.539 63.907 100.539C64.3404 100.539 64.7475 100.497 65.1297 100.412C65.5092 100.327 65.8389 100.189 66.1147 99.9983C66.3905 99.8079 66.6098 99.5675 66.7739 99.2786C66.9355 98.9897 67.0182 98.6469 67.0182 98.2542Z" fill="black"/>
<path d="M78.2142 97.9377H73.1566L71.7842 101.759H70.1492L75.3709 87.753H76.1182L81.3583 101.759H79.6247L78.2142 97.9377ZM73.6859 96.5194H77.7243L76.1957 92.3233L75.7058 90.2352H75.6848L75.1949 92.3627L73.6859 96.5194Z" fill="black"/>
<path d="M83.6053 88.1076C84.1044 88.0157 84.6783 87.9434 85.3297 87.8909C85.9798 87.8384 86.5734 87.8121 87.1119 87.8121C87.716 87.8121 88.2899 87.8778 88.8363 88.0091C89.3813 88.1404 89.8606 88.3571 90.2743 88.6592C90.688 88.9613 91.019 89.3553 91.2698 89.8412C91.518 90.3271 91.6441 90.9181 91.6441 91.6141C91.6441 92.6911 91.3473 93.5644 90.7576 94.2342C90.1666 94.904 89.4167 95.3505 88.5106 95.5738L89.4575 96.3027L92.8839 101.759H90.973L87.171 95.8102L85.2404 95.5147V101.759H83.6053V88.1076ZM87.1513 89.2305C86.9792 89.2305 86.8019 89.2305 86.6194 89.2305C86.4342 89.2305 86.2582 89.2371 86.0875 89.2502C85.9168 89.2633 85.7552 89.2765 85.6055 89.2896C85.4545 89.3027 85.3324 89.3224 85.2417 89.3487V94.4312H86.7783C87.6832 94.4312 88.4331 94.2079 89.0241 93.7614C89.6151 93.3149 89.9106 92.6188 89.9106 91.6733C89.9106 90.9641 89.6663 90.3796 89.1817 89.92C88.6944 89.4616 88.0168 89.2305 87.1513 89.2305Z" fill="black"/>
<path d="M101.775 97.9377H96.7174L95.345 101.759H93.71L98.9317 87.753H99.679L104.919 101.759H103.186L101.775 97.9377ZM97.2454 96.5194H101.284L99.7551 92.3233L99.2653 90.2352H99.2443L98.7544 92.3627L97.2454 96.5194Z" fill="black"/>
<path d="M117.764 92.5019L117.96 90.4335H117.862L117.114 92.3246L113.529 98.5497H113.037L109.234 92.3049L108.525 90.4335H108.427L108.703 92.4822V101.761H107.166V87.971H108.387L112.702 95.0235L113.352 96.5601H113.391L114.002 94.9841L118.119 87.971H119.4V101.761H117.766V92.5019H117.764Z" fill="black"/>
<path d="M135.058 98.2542C135.058 97.7026 134.894 97.2522 134.566 96.9055C134.237 96.5574 133.826 96.2488 133.334 95.9796C132.841 95.7104 132.307 95.4582 131.728 95.2205C131.151 94.9841 130.614 94.6991 130.122 94.3642C129.629 94.0293 129.218 93.6156 128.89 93.1231C128.561 92.6306 128.397 92.0042 128.397 91.2425C128.397 90.1656 128.771 89.3119 129.52 88.6815C130.269 88.0511 131.332 87.7359 132.711 87.7359C133.513 87.7359 134.241 87.795 134.898 87.9132C135.555 88.0314 136.068 88.1825 136.435 88.3663L135.942 89.8241C135.641 89.6744 135.198 89.5325 134.613 89.3973C134.029 89.262 133.368 89.1937 132.633 89.1937C131.766 89.1937 131.116 89.3868 130.682 89.7742C130.249 90.1616 130.032 90.6186 130.032 91.1427C130.032 91.6549 130.196 92.0817 130.525 92.4231C130.853 92.7646 131.264 93.0706 131.757 93.3385C132.249 93.6077 132.784 93.8743 133.363 94.1357C133.941 94.3984 134.477 94.7044 134.969 95.0524C135.461 95.4004 135.873 95.818 136.201 96.304C136.529 96.7899 136.693 97.394 136.693 98.1163C136.693 98.7073 136.588 99.2392 136.378 99.712C136.168 100.185 135.859 100.592 135.452 100.933C135.045 101.275 134.553 101.538 133.975 101.721C133.398 101.905 132.742 101.997 132.005 101.997C131.02 101.997 130.206 101.921 129.563 101.77C128.92 101.619 128.421 101.452 128.065 101.268L128.617 99.8105C128.919 99.976 129.365 100.139 129.957 100.299C130.548 100.459 131.212 100.539 131.947 100.539C132.38 100.539 132.788 100.497 133.17 100.412C133.549 100.327 133.879 100.189 134.155 99.9983C134.431 99.8079 134.65 99.5675 134.814 99.2786C134.977 98.9897 135.058 98.6469 135.058 98.2542Z" fill="black"/>
<path d="M142.741 96.2843L138.19 87.971H140.101L143.332 93.9991L143.673 95.2008H143.695L144.054 93.9597L147.154 87.971H148.887L144.375 96.2646V101.761H142.74V96.2843H142.741Z" fill="black"/>
<path d="M153.597 92.737L152.533 90.7474H152.453L152.65 92.737V101.759H151.113V87.753H151.98L158.578 96.9528L159.603 98.8439H159.701L159.484 96.9528V87.9697H161.021V101.976H160.154L153.597 92.737Z" fill="black"/>
<path d="M164.785 87.9697H172.291V89.4275H166.42V93.9387H171.798V95.3965H166.42V100.302H172.39V101.759H164.785V87.9697Z" fill="black"/>
<path d="M175.759 88.1076C176.257 88.0157 176.831 87.9434 177.483 87.8909C178.132 87.8384 178.727 87.8121 179.266 87.8121C179.868 87.8121 180.442 87.8778 180.99 88.0091C181.534 88.1404 182.013 88.3571 182.427 88.6592C182.842 88.9613 183.173 89.3553 183.422 89.8412C183.67 90.3271 183.796 90.9181 183.796 91.6141C183.796 92.6911 183.501 93.5644 182.909 94.2342C182.319 94.904 181.569 95.3505 180.664 95.5738L181.611 96.3027L185.038 101.759H183.127L179.325 95.8102L177.393 95.5147V101.759H175.759V88.1076ZM179.304 89.2305C179.132 89.2305 178.954 89.2305 178.773 89.2305C178.588 89.2305 178.412 89.2371 178.24 89.2502C178.07 89.2633 177.909 89.2765 177.758 89.2896C177.607 89.3027 177.486 89.3224 177.394 89.3487V94.4312H178.931C179.835 94.4312 180.585 94.2079 181.178 93.7614C181.767 93.3149 182.063 92.6188 182.063 91.6733C182.063 90.9641 181.819 90.3796 181.334 89.92C180.848 89.4616 180.17 89.2305 179.304 89.2305Z" fill="black"/>
<path d="M191.675 94.8856H196.305V100.953C196.094 101.111 195.84 101.255 195.545 101.386C195.25 101.518 194.935 101.631 194.601 101.721C194.265 101.813 193.917 101.882 193.554 101.928C193.196 101.974 192.844 101.997 192.502 101.997C191.623 101.997 190.815 101.855 190.078 101.573C189.341 101.291 188.706 100.857 188.167 100.273C187.629 99.6884 187.209 98.9464 186.905 98.0467C186.604 97.1471 186.453 96.0873 186.453 94.8659C186.453 93.592 186.636 92.5019 187.005 91.5958C187.371 90.6896 187.852 89.9515 188.444 89.3789C189.034 88.8076 189.696 88.3913 190.433 88.1286C191.169 87.866 191.905 87.7346 192.639 87.7346C193.43 87.7346 194.078 87.778 194.591 87.8633C195.102 87.9487 195.535 88.0643 195.891 88.2087L195.476 89.6665C194.847 89.3513 193.947 89.1937 192.777 89.1937C192.225 89.1937 191.676 89.2883 191.133 89.4787C190.586 89.6691 190.099 89.9883 189.666 90.4348C189.232 90.8813 188.875 91.4657 188.601 92.1881C188.324 92.9104 188.188 93.8034 188.188 94.8672C188.188 95.8391 188.299 96.6796 188.522 97.3888C188.745 98.098 189.055 98.6863 189.456 99.1526C189.854 99.6188 190.336 99.9668 190.898 100.197C191.462 100.426 192.077 100.541 192.744 100.541C193.583 100.541 194.296 100.377 194.886 100.048V96.2068L191.675 95.8128V94.8856Z" fill="black"/>
<path d="M202.53 96.2843L197.979 87.971H199.89L203.119 93.9991L203.461 95.2008H203.482L203.843 93.9597L206.941 87.971H208.675L204.162 96.2646V101.761H202.528V96.2843H202.53Z" fill="black"/>
</svg>
